<svg id="Capa_1" enable-background="new 0 0 512 512" height="512" viewBox="0 0 512 512" width="512" xmlns="http://www.w3.org/2000/svg"><g><g><g><g><g><g><g><g><g><g><g><g><g><g><g><g><g><g><g><g><g><g><g><circle cx="256" cy="256" fill="#7584f2" r="256"/></g></g></g></g></g></g></g></g></g></g></g></g></g></g></g></g></g></g></g></g></g></g><path d="m504.21 318.919-229.17-229.17-118.037 86.24 79.695 79.695-129.272 153.808 97.391 97.391c16.538 3.355 33.655 5.117 51.183 5.117 119.675 0 220.169-82.118 248.21-193.081z" fill="#4855b7"/><g><path d="m247.086 169.124c16.83-22.707 27.954-57.778 27.954-79.376h-123.106c0 21.597 11.123 56.668 27.954 79.376-59.133 23.171-102.888 103.397-102.888 167.182 0 75.38 61.084 104.554 136.464 104.554s136.51-29.174 136.51-104.554c-.001-63.785-43.756-144.011-102.888-167.182z" fill="#fff"/></g><g><path d="m247.086 169.124c16.83-22.708 27.953-57.778 27.953-79.375h-61.576v351.216c-.091-.106-.046-.105 0-.105 75.38 0 136.51-29.174 136.51-104.554 0-63.785-43.754-144.011-102.887-167.182z" fill="#e9edf5"/></g><g><path d="m157.003 145.988h112.968v30h-112.968z" fill="#ff73a5"/></g><g><path d="m213.464 145.988h56.507v30h-56.507z" fill="#ff468c"/></g><g><path d="m178.982 156.371h30v85.713h-30z" fill="#ff73a5"/></g><g><path d="m220.258 156.371h30v57.208h-30z" fill="#ff468c"/></g><g><g><path d="m154.386 299.546c0-16.917 13.714-30.63 30.631-30.63 12.917 0 23.944 7.985 28.447 19.297 4.503-11.312 15.575-19.297 28.493-19.297 16.917 0 30.631 13.714 30.631 30.63 0 41.9-59.123 70.066-59.123 70.066s-59.079-30.2-59.079-70.066z" fill="#ff5f96"/></g></g><g><g><path d="m241.957 268.916c-12.917 0-23.99 7.985-28.493 19.297v81.399s59.123-28.166 59.123-70.066c0-16.917-13.714-30.63-30.63-30.63z" fill="#d72878"/></g></g><g><circle cx="363.247" cy="324.625" fill="#ffce00" r="74.625"/></g><g><path d="m363.247 250c-.168 0-.333.012-.5.013v149.225c.167.001.332.013.5.013 41.214 0 74.625-33.411 74.625-74.625s-33.411-74.626-74.625-74.626z" fill="#fdba12"/></g><g><circle cx="363.247" cy="324.625" fill="#fa0" r="46.243"/></g><g><path d="m363.247 278.382c-.168 0-.333.011-.5.012v92.462c.167.001.332.013.5.013 25.54 0 46.243-20.704 46.243-46.244s-20.704-46.243-46.243-46.243z" fill="#ff9500"/></g></g></svg>